<svg width="32" height="32" viewBox="0 0 32 32" fill="none" xmlns="http://www.w3.org/2000/svg">
<rect width="32" height="32" rx="16" fill="#E37502"/>
<g clip-path="url(#clip0_88_8984)">
<path d="M16.503 6.6326C16.8943 6.54019 17.2707 6.42274 17.563 6.12227C17.6579 6.02449 17.7929 5.98872 17.931 6.00303C18.4821 6.06086 19.0427 6.04536 19.5824 6.18785C20.2943 6.37624 20.9864 6.61948 21.6185 7.00819C21.7061 7.06244 21.7992 7.10775 21.8892 7.15783C22.3406 7.49825 22.7686 7.86013 23.1648 8.26851C23.5357 8.65126 23.8581 9.06143 24.1252 9.51333C24.3755 9.93662 24.6042 10.3742 24.7429 10.8523C24.7711 10.9495 24.7627 11.0783 24.8894 11.129C24.8089 11.2613 24.8834 11.3895 24.9146 11.5111C25.0124 11.8891 25.0838 12.2707 25.076 12.6612C25.0736 12.7905 25.1367 12.8639 25.2171 12.9437C26.0101 13.7289 26.7994 14.5171 27.5942 15.3004C27.752 15.456 27.8943 15.6194 27.9994 15.8143V19.0707C27.7911 19.4856 27.4297 19.5542 27.0059 19.5333C26.5617 19.5112 26.5611 19.5285 26.5611 19.9697C26.5611 20.2964 26.5623 20.6231 26.5611 20.9498C26.5593 21.397 26.2748 21.6861 25.8216 21.6921C25.3954 21.698 24.9692 21.6968 24.543 21.6915C24.4007 21.6897 24.3431 21.7058 24.3071 21.8822C23.9655 23.579 23.0213 24.8166 21.4246 25.547C20.7439 25.8582 20.0314 25.9917 19.2852 25.9857C18.3584 25.978 17.431 25.9786 16.5042 25.9762C16.503 25.0277 16.5024 24.0798 16.5012 23.1312C16.9724 23.1295 17.4436 23.1312 17.9148 23.1241C18.293 23.1181 18.6045 22.8475 18.6081 22.507C18.6153 21.7344 18.6093 20.9617 18.6081 20.1891C19.4437 19.9918 20.1664 19.6126 20.7091 18.93C21.355 18.118 21.6113 17.1927 21.4582 16.181C21.3255 15.3088 20.9228 14.5636 20.218 13.9936C19.6142 13.5053 18.9335 13.2305 18.1567 13.187C17.6039 13.1792 17.0504 13.1721 16.4976 13.1643C16.4994 10.9871 16.5006 8.80924 16.5024 6.632L16.503 6.6326ZM20.493 11.0306C20.3303 11.0306 20.2102 11.027 20.0908 11.0312C19.7408 11.0437 19.4455 11.3108 19.4179 11.6125C19.3891 11.9237 19.6496 12.3476 20.0212 12.3547C20.3051 12.3601 20.5902 12.3768 20.8723 12.3571C21.1815 12.3356 21.4594 12.0566 21.4864 11.7836C21.5146 11.4974 21.3514 11.1522 21.0026 11.0646C20.8147 11.0175 20.6328 11.0527 20.493 11.0306Z" fill="#A77253"/>
<path d="M16.503 6.63257C16.5012 8.80982 16.5 10.9877 16.4982 13.1649L16.5 13.184C16.0486 13.1816 15.5972 13.1792 15.1452 13.1774C15.0138 13.1774 14.8811 13.175 14.758 13.2329C13.833 13.2114 13.0965 13.6418 12.4878 14.2654C11.8155 14.9546 11.4884 15.8048 11.5088 16.7855C11.5292 17.7483 11.8923 18.5567 12.5592 19.2298C13.0629 19.7378 13.6944 20.0359 14.3937 20.1903C14.3919 20.9093 14.3889 21.6288 14.3889 22.3478C14.3889 22.8594 14.6572 23.1193 15.18 23.1223C15.62 23.1247 16.0606 23.1288 16.5006 23.1324C16.5018 24.0809 16.5024 25.0289 16.5036 25.9774C15.3967 25.9804 14.2868 26.0316 13.1835 25.972C12.1589 25.9166 11.235 25.5076 10.4421 24.8506C9.50687 24.0756 8.90179 23.0978 8.68509 21.8977C8.65508 21.7308 8.58965 21.6545 8.39456 21.6634C7.97677 21.6837 7.55718 21.6724 7.13819 21.6688C6.7156 21.6652 6.44728 21.3951 6.44368 20.9713C6.44008 20.5551 6.43648 20.139 6.44608 19.7229C6.44968 19.5696 6.40586 19.51 6.24559 19.5208C6.05951 19.5333 5.87162 19.5214 5.68494 19.5237C5.33918 19.5273 4.99643 19.2113 5.00003 18.8507C5.00903 17.892 5.00603 16.9339 5.00123 15.9753C5.00003 15.7434 5.12909 15.5884 5.27675 15.4405C6.0421 14.6774 6.80024 13.906 7.5836 13.1607C7.8069 12.9479 7.90834 12.7184 7.92095 12.4322C7.93956 12.0041 8.0416 11.5922 8.14545 11.1802C8.27931 10.6693 8.50801 10.1971 8.76013 9.73568C9.04526 9.21403 9.38561 8.73291 9.7998 8.30187C10.2014 7.88395 10.6396 7.50955 11.1078 7.16854C11.6828 6.84243 12.2627 6.52765 12.902 6.33746C13.4849 6.16398 14.0749 6.03997 14.6872 6.04414C14.8109 6.04474 14.9351 6.02686 15.0594 6.02507C15.2797 6.02268 15.4556 6.12046 15.6146 6.26592C15.8649 6.49545 16.1735 6.59084 16.5042 6.63198L16.503 6.63257ZM12.504 11.0312C12.504 11.0312 12.504 11.0324 12.504 11.033C12.3696 11.033 12.2351 11.027 12.1012 11.0342C11.7615 11.0514 11.495 11.3179 11.4686 11.647C11.4463 11.9177 11.6931 12.3088 12.034 12.3463C12.3467 12.3809 12.6607 12.3845 12.971 12.3529C13.3408 12.3153 13.5533 12.0208 13.5359 11.619C13.5233 11.3233 13.2502 11.055 12.9284 11.033C12.7873 11.0234 12.6451 11.0312 12.5034 11.0312H12.504Z" fill="#E9A775"/>
<path d="M11.1077 7.16855C10.6395 7.50956 10.2019 7.88336 9.79972 8.30188C9.38553 8.73292 9.04517 9.21404 8.76005 9.73569C8.50793 10.1971 8.27983 10.6693 8.14537 11.1802C7.71677 10.7796 7.26237 10.3969 6.91901 9.9217C6.05342 8.72278 6.38117 7.15782 7.62913 6.36311C8.50073 5.80807 10.0518 5.96009 10.7253 6.79593C10.8358 6.93365 10.9792 7.04514 11.1071 7.16914L11.1077 7.16855Z" fill="#A77253"/>
<path d="M24.89 11.1289C24.7634 11.0782 24.7718 10.9489 24.7436 10.8523C24.6049 10.3742 24.3762 9.93656 24.1259 9.51327C23.8588 9.06137 23.5364 8.6506 23.1655 8.26845C22.7693 7.86007 22.3413 7.49819 21.8899 7.15777C22.3395 6.65817 22.8251 6.21581 23.5202 6.07869C24.8132 5.82412 26.1446 6.47634 26.464 7.88332C26.6627 8.7603 26.4808 9.57587 25.7905 10.2281C25.4819 10.5196 25.1896 10.8284 24.8894 11.1295L24.89 11.1289Z" fill="#80541C"/>
<path d="M18.1573 13.1869C18.9341 13.2298 19.6148 13.5052 20.2187 13.9935C20.9234 14.5635 21.3268 15.3087 21.4588 16.1809C21.6125 17.1932 21.3556 18.1185 20.7097 18.9299C20.167 19.6125 19.4437 19.9917 18.6081 20.189C17.8224 20.3756 17.1147 20.2319 16.5 19.696C16.5 19.011 16.5 18.3259 16.5 17.6409C16.5 17.5533 16.5132 17.4627 16.455 17.3852C16.47 17.3804 16.485 17.375 16.5 17.3703C16.6116 17.3691 16.7269 17.3858 16.8343 17.3637C17.9418 17.1336 18.6489 16.2632 18.6195 15.1507C18.6099 14.7793 18.6033 14.4067 18.6219 14.0358C18.6411 13.6495 18.5205 13.3574 18.1561 13.1875L18.1573 13.1869Z" fill="#80541C"/>
<path d="M16.5006 19.696C17.1152 20.232 17.823 20.3757 18.6087 20.1891C18.6093 20.9617 18.6159 21.7344 18.6087 22.507C18.6057 22.8474 18.2936 23.1181 17.9154 23.1241C17.4442 23.1318 16.973 23.1294 16.5018 23.1312C16.0618 23.1276 15.6212 23.1235 15.1812 23.1211C14.6583 23.1187 14.39 22.8582 14.39 22.3466C14.39 21.6276 14.393 20.9081 14.3948 20.1891C14.7256 20.2493 15.0545 20.325 15.3931 20.2302C15.7953 20.1175 16.192 19.9965 16.5018 19.6954L16.5006 19.696Z" fill="white"/>
<path d="M18.1573 13.1869C18.5217 13.3569 18.6423 13.649 18.6231 14.0353C18.6045 14.4061 18.6111 14.7787 18.6207 15.1502C18.6501 16.2626 17.943 17.1331 16.8355 17.3632C16.7281 17.3852 16.6128 17.3685 16.5012 17.3697C16.5012 15.9741 16.5006 14.5784 16.5 13.1828L16.4982 13.1637C17.051 13.1714 17.6045 13.1786 18.1573 13.1864V13.1869Z" fill="#51453A"/>
<path d="M20.493 11.03C20.6329 11.0521 20.8148 11.0169 21.0027 11.064C21.3514 11.1516 21.5147 11.4968 21.4865 11.783C21.4595 12.0566 21.1815 12.3356 20.8724 12.3565C20.5903 12.3762 20.3051 12.3595 20.0212 12.3541C19.6497 12.3469 19.3891 11.9237 19.4179 11.6119C19.4456 11.3102 19.7409 11.0431 20.0908 11.0306C20.2103 11.0264 20.3304 11.03 20.493 11.03Z" fill="#51453A"/>
<path d="M16.5006 19.696C16.1914 19.9976 15.794 20.1181 15.3919 20.2308C15.0539 20.3255 14.7244 20.2498 14.3936 20.1896C13.6943 20.0352 13.0628 19.7371 12.5592 19.2292C11.8917 18.5561 11.5291 17.7477 11.5087 16.7848C11.4883 15.8041 11.8154 14.954 12.4878 14.2648C13.0964 13.6406 13.833 13.2108 14.758 13.2322C14.5047 13.395 14.369 13.6096 14.3822 13.9256C14.4002 14.3542 14.3822 14.7847 14.3894 15.2139C14.3924 15.3743 14.3828 15.5341 14.4158 15.6968C14.6037 16.6269 15.4729 17.3768 16.4561 17.3846C16.5144 17.4621 16.5012 17.5527 16.5012 17.6404C16.5012 18.3254 16.5012 19.0104 16.5012 19.6954L16.5006 19.696Z" fill="#A77253"/>
<path d="M16.4562 17.3852C15.4729 17.3781 14.6037 16.6281 14.4158 15.6975C14.3828 15.5347 14.3924 15.3749 14.3894 15.2145C14.3822 14.7853 14.4002 14.3549 14.3822 13.9262C14.369 13.6096 14.5047 13.3956 14.758 13.2329C14.8811 13.175 15.0137 13.1768 15.1452 13.1774C15.5966 13.1792 16.048 13.1816 16.5 13.184C16.5 14.5796 16.5006 15.9753 16.5012 17.3709C16.4862 17.3757 16.4712 17.3811 16.4562 17.3858V17.3852Z" fill="#80684C"/>
<path d="M12.5046 11.0312C12.6463 11.0312 12.7886 11.0228 12.9296 11.033C13.2514 11.0556 13.5245 11.3233 13.5371 11.619C13.5545 12.0208 13.342 12.3154 12.9723 12.3529C12.6619 12.3845 12.348 12.3809 12.0352 12.3464C11.6937 12.3088 11.4476 11.9177 11.4698 11.647C11.4968 11.3185 11.7627 11.0521 12.1025 11.0342C12.2363 11.027 12.3708 11.033 12.5052 11.033C12.5052 11.0324 12.5052 11.0318 12.5052 11.0312H12.5046Z" fill="#51453A"/>
</g>
<defs>
<clipPath id="clip0_88_8984">
<rect width="23" height="20" fill="white" transform="translate(5 6)"/>
</clipPath>
</defs>
</svg>
