<svg width="40" height="40" viewBox="0 0 40 40" fill="none" xmlns="http://www.w3.org/2000/svg">
<g id="icon-close">
<mask id="mask0_108_6940" style="mask-type:alpha" maskUnits="userSpaceOnUse" x="0" y="0" width="40" height="40">
<rect id="Bounding box" width="40" height="40" fill="#D9D9D9"/>
</mask>
<g mask="url(#mask0_108_6940)">
<path id="close" d="M20 21.9444L11.4444 30.5C11.1759 30.7685 10.8518 30.9028 10.4722 30.9028C10.0926 30.9028 9.76849 30.7685 9.49996 30.5C9.23143 30.2314 9.09717 29.9074 9.09717 29.5278C9.09717 29.1481 9.23143 28.824 9.49996 28.5555L18.0555 20L9.49996 11.4444C9.23143 11.1759 9.09717 10.8518 9.09717 10.4722C9.09717 10.0926 9.23143 9.76849 9.49996 9.49996C9.76849 9.23143 10.0926 9.09717 10.4722 9.09717C10.8518 9.09717 11.1759 9.23143 11.4444 9.49996L20 18.0555L28.5555 9.49996C28.824 9.23143 29.1481 9.09717 29.5278 9.09717C29.9074 9.09717 30.2314 9.23143 30.5 9.49996C30.7685 9.76849 30.9028 10.0926 30.9028 10.4722C30.9028 10.8518 30.7685 11.1759 30.5 11.4444L21.9444 20L30.5 28.5555C30.7685 28.824 30.9028 29.1481 30.9028 29.5278C30.9028 29.9074 30.7685 30.2314 30.5 30.5C30.2314 30.7685 29.9074 30.9028 29.5278 30.9028C29.1481 30.9028 28.824 30.7685 28.5555 30.5L20 21.9444Z" fill="#645D57"/>
</g>
</g>
</svg>
